mtllib prt0004.mtl

v  -44.067278 14.472768 0.000000
v  -44.067278 14.472768 0.000000
v  -44.067278 14.472768 0.000000
v  -44.067278 -32.521593 0.000000
v  -44.067278 -32.521593 0.000000
v  -44.067278 -32.521593 0.000000
v  -41.061771 -32.523100 0.000000
v  -41.061771 -32.523100 0.000000
v  -41.061771 -32.523100 0.000000
v  -41.067486 -29.520455 0.000000
v  -41.067486 -29.520455 0.000000
v  -41.067486 -29.520455 0.000000
v  -38.062172 -29.520455 0.000000
v  -38.062172 -29.520455 0.000000
v  -38.062172 -29.520455 0.000000
v  -38.062172 -32.520455 0.000000
v  -38.062172 -32.520455 0.000000
v  -38.062172 -32.520455 0.000000
v  25.437828 -32.520455 0.000000
v  25.437828 -32.520455 0.000000
v  25.437828 -32.520455 0.000000
v  25.437828 -29.520455 0.000000
v  25.437828 -29.520455 0.000000
v  25.437828 -29.520455 0.000000
v  28.443530 -29.520455 0.000000
v  28.443530 -29.520455 0.000000
v  28.443530 -29.520455 0.000000
v  28.443530 -32.520455 0.000000
v  28.443530 -32.520455 0.000000
v  28.443530 -32.520455 0.000000
v  43.536825 -32.521593 0.000000
v  43.536825 -32.521593 0.000000
v  43.536825 -32.521593 0.000000
v  43.536825 -12.570466 0.000000
v  43.536825 -12.570466 0.000000
v  43.536825 -12.570466 0.000000
v  31.443517 -12.570466 0.000000
v  31.443517 -12.570466 0.000000
v  31.443517 -12.570466 0.000000
v  31.443517 14.472768 0.000000
v  31.443517 14.472768 0.000000
v  31.443517 14.472768 0.000000
v  28.443517 14.472768 0.000000
v  28.443517 14.472768 0.000000
v  28.443517 14.472768 0.000000
v  28.443517 17.478684 0.000000
v  28.443517 17.478684 0.000000
v  28.443517 17.478684 0.000000
v  31.443517 17.478684 0.000000
v  31.443517 17.478684 0.000000
v  31.443517 17.478684 0.000000
v  31.443517 21.497227 0.000000
v  31.443517 21.497227 0.000000
v  31.443517 21.497227 0.000000
v  28.443517 21.497227 0.000000
v  28.443517 21.497227 0.000000
v  28.443517 21.497227 0.000000
v  -1.570486 21.497227 0.000000
v  -1.570486 21.497227 0.000000
v  -1.570486 21.497227 0.000000
v  -1.570486 18.491914 0.000000
v  -1.570486 18.491914 0.000000
v  -1.570486 18.491914 0.000000
v  -4.576152 18.491914 0.000000
v  -4.576152 18.491914 0.000000
v  -4.576152 18.491914 0.000000
v  -4.576152 21.497227 0.000000
v  -4.576152 21.497227 0.000000
v  -4.576152 21.497227 0.000000
v  -44.067278 21.497227 0.000000
v  -44.067278 21.497227 0.000000
v  -44.067278 21.497227 0.000000
v  -44.067278 17.478684 0.000000
v  -44.067278 17.478684 0.000000
v  -44.067278 17.478684 0.000000
v  -41.067278 17.478684 0.000000
v  -41.067278 17.478684 0.000000
v  -41.067278 17.478684 0.000000
v  -41.067278 14.472768 0.000000
v  -41.067278 14.472768 0.000000
v  -41.067278 14.472768 0.000000
v  -44.067278 14.472768 3.000000
v  -44.067278 14.472768 3.000000
v  -44.067278 14.472768 3.000000
v  -41.067278 14.472768 3.000000
v  -41.067278 14.472768 3.000000
v  -41.067278 14.472768 3.000000
v  -41.067278 17.478684 3.000000
v  -41.067278 17.478684 3.000000
v  -41.067278 17.478684 3.000000
v  -44.067278 17.478684 3.000000
v  -44.067278 17.478684 3.000000
v  -44.067278 17.478684 3.000000
v  -44.067278 21.497227 3.000000
v  -44.067278 21.497227 3.000000
v  -44.067278 21.497227 3.000000
v  -4.576152 21.497227 3.000000
v  -4.576152 21.497227 3.000000
v  -4.576152 21.497227 3.000000
v  -4.576152 18.491914 3.000000
v  -4.576152 18.491914 3.000000
v  -4.576152 18.491914 3.000000
v  -1.570486 18.491914 3.000000
v  -1.570486 18.491914 3.000000
v  -1.570486 18.491914 3.000000
v  -1.570486 21.497227 3.000000
v  -1.570486 21.497227 3.000000
v  -1.570486 21.497227 3.000000
v  28.443517 21.497227 3.000000
v  28.443517 21.497227 3.000000
v  28.443517 21.497227 3.000000
v  31.443517 21.497227 3.000000
v  31.443517 21.497227 3.000000
v  31.443517 21.497227 3.000000
v  31.443517 17.478684 3.000000
v  31.443517 17.478684 3.000000
v  31.443517 17.478684 3.000000
v  28.443517 17.478684 3.000000
v  28.443517 17.478684 3.000000
v  28.443517 17.478684 3.000000
v  28.443517 14.472768 3.000000
v  28.443517 14.472768 3.000000
v  28.443517 14.472768 3.000000
v  31.443517 14.472768 3.000000
v  31.443517 14.472768 3.000000
v  31.443517 14.472768 3.000000
v  31.443517 -12.570466 3.000000
v  31.443517 -12.570466 3.000000
v  31.443517 -12.570466 3.000000
v  43.536825 -12.570466 3.000000
v  43.536825 -12.570466 3.000000
v  43.536825 -12.570466 3.000000
v  43.536825 -32.521593 3.000000
v  43.536825 -32.521593 3.000000
v  43.536825 -32.521593 3.000000
v  28.443530 -32.520455 3.000000
v  28.443530 -32.520455 3.000000
v  28.443530 -32.520455 3.000000
v  28.443530 -29.520455 3.000000
v  28.443530 -29.520455 3.000000
v  28.443530 -29.520455 3.000000
v  25.437828 -29.520455 3.000000
v  25.437828 -29.520455 3.000000
v  25.437828 -29.520455 3.000000
v  25.437828 -32.520455 3.000000
v  25.437828 -32.520455 3.000000
v  25.437828 -32.520455 3.000000
v  -38.062172 -32.520455 3.000000
v  -38.062172 -32.520455 3.000000
v  -38.062172 -32.520455 3.000000
v  -38.062172 -29.520455 3.000000
v  -38.062172 -29.520455 3.000000
v  -38.062172 -29.520455 3.000000
v  -41.067486 -29.520455 3.000000
v  -41.067486 -29.520455 3.000000
v  -41.067486 -29.520455 3.000000
v  -41.061771 -32.523100 3.000000
v  -41.061771 -32.523100 3.000000
v  -41.061771 -32.523100 3.000000
v  -44.067278 -32.521593 3.000000
v  -44.067278 -32.521593 3.000000
v  -44.067278 -32.521593 3.000000

vt  0.000000 0.869966 0.000000
vt  0.000000 0.869966 0.000000
vt  0.000000 0.869966 0.000000
vt  0.000000 0.000028 0.000000
vt  0.000000 0.000028 0.000000
vt  0.000000 0.000028 0.000000
vt  0.034308 0.000000 0.000000
vt  0.034308 0.000000 0.000000
vt  0.034308 0.000000 0.000000
vt  0.034243 0.055584 0.000000
vt  0.034243 0.055584 0.000000
vt  0.034243 0.055584 0.000000
vt  0.068548 0.055584 0.000000
vt  0.068548 0.055584 0.000000
vt  0.068548 0.055584 0.000000
vt  0.068548 0.000049 0.000000
vt  0.068548 0.000049 0.000000
vt  0.068548 0.000049 0.000000
vt  0.793400 0.000049 0.000000
vt  0.793400 0.000049 0.000000
vt  0.793400 0.000049 0.000000
vt  0.793400 0.055584 0.000000
vt  0.793400 0.055584 0.000000
vt  0.793400 0.055584 0.000000
vt  0.827710 0.055584 0.000000
vt  0.827710 0.055584 0.000000
vt  0.827710 0.055584 0.000000
vt  0.827710 0.000049 0.000000
vt  0.827710 0.000049 0.000000
vt  0.827710 0.000049 0.000000
vt  1.000000 0.000028 0.000000
vt  1.000000 0.000028 0.000000
vt  1.000000 0.000028 0.000000
vt  1.000000 0.369354 0.000000
vt  1.000000 0.369354 0.000000
vt  1.000000 0.369354 0.000000
vt  0.861955 0.369354 0.000000
vt  0.861955 0.369354 0.000000
vt  0.861955 0.369354 0.000000
vt  0.861955 0.869966 0.000000
vt  0.861955 0.869966 0.000000
vt  0.861955 0.869966 0.000000
vt  0.827710 0.869966 0.000000
vt  0.827710 0.869966 0.000000
vt  0.827710 0.869966 0.000000
vt  0.827710 0.925611 0.000000
vt  0.827710 0.925611 0.000000
vt  0.827710 0.925611 0.000000
vt  0.861955 0.925611 0.000000
vt  0.861955 0.925611 0.000000
vt  0.861955 0.925611 0.000000
vt  0.861955 1.000000 0.000000
vt  0.861955 1.000000 0.000000
vt  0.861955 1.000000 0.000000
vt  0.827710 1.000000 0.000000
vt  0.827710 1.000000 0.000000
vt  0.827710 1.000000 0.000000
vt  0.485100 1.000000 0.000000
vt  0.485100 1.000000 0.000000
vt  0.485100 1.000000 0.000000
vt  0.485100 0.944367 0.000000
vt  0.485100 0.944367 0.000000
vt  0.485100 0.944367 0.000000
vt  0.450791 0.944367 0.000000
vt  0.450791 0.944367 0.000000
vt  0.450791 0.944367 0.000000
vt  0.450791 1.000000 0.000000
vt  0.450791 1.000000 0.000000
vt  0.450791 1.000000 0.000000
vt  0.000000 1.000000 0.000000
vt  0.000000 1.000000 0.000000
vt  0.000000 1.000000 0.000000
vt  0.000000 0.925611 0.000000
vt  0.000000 0.925611 0.000000
vt  0.000000 0.925611 0.000000
vt  0.034245 0.925611 0.000000
vt  0.034245 0.925611 0.000000
vt  0.034245 0.925611 0.000000
vt  0.034245 0.869966 0.000000
vt  0.034245 0.869966 0.000000
vt  0.034245 0.869966 0.000000
vt  0.000000 0.869966 0.000000
vt  0.000000 0.869966 0.000000
vt  0.000000 0.869966 0.000000
vt  0.034245 0.869966 0.000000
vt  0.034245 0.869966 0.000000
vt  0.034245 0.869966 0.000000
vt  0.034245 0.925611 0.000000
vt  0.034245 0.925611 0.000000
vt  0.034245 0.925611 0.000000
vt  0.000000 0.925611 0.000000
vt  0.000000 0.925611 0.000000
vt  0.000000 0.925611 0.000000
vt  0.000000 1.000000 0.000000
vt  0.000000 1.000000 0.000000
vt  0.000000 1.000000 0.000000
vt  0.450791 1.000000 0.000000
vt  0.450791 1.000000 0.000000
vt  0.450791 1.000000 0.000000
vt  0.450791 0.944367 0.000000
vt  0.450791 0.944367 0.000000
vt  0.450791 0.944367 0.000000
vt  0.485100 0.944367 0.000000
vt  0.485100 0.944367 0.000000
vt  0.485100 0.944367 0.000000
vt  0.485100 1.000000 0.000000
vt  0.485100 1.000000 0.000000
vt  0.485100 1.000000 0.000000
vt  0.827710 1.000000 0.000000
vt  0.827710 1.000000 0.000000
vt  0.827710 1.000000 0.000000
vt  0.861955 1.000000 0.000000
vt  0.861955 1.000000 0.000000
vt  0.861955 1.000000 0.000000
vt  0.861955 0.925611 0.000000
vt  0.861955 0.925611 0.000000
vt  0.861955 0.925611 0.000000
vt  0.827710 0.925611 0.000000
vt  0.827710 0.925611 0.000000
vt  0.827710 0.925611 0.000000
vt  0.827710 0.869966 0.000000
vt  0.827710 0.869966 0.000000
vt  0.827710 0.869966 0.000000
vt  0.861955 0.869966 0.000000
vt  0.861955 0.869966 0.000000
vt  0.861955 0.869966 0.000000
vt  0.861955 0.369354 0.000000
vt  0.861955 0.369354 0.000000
vt  0.861955 0.369354 0.000000
vt  1.000000 0.369354 0.000000
vt  1.000000 0.369354 0.000000
vt  1.000000 0.369354 0.000000
vt  1.000000 0.000028 0.000000
vt  1.000000 0.000028 0.000000
vt  1.000000 0.000028 0.000000
vt  0.827710 0.000049 0.000000
vt  0.827710 0.000049 0.000000
vt  0.827710 0.000049 0.000000
vt  0.827710 0.055584 0.000000
vt  0.827710 0.055584 0.000000
vt  0.827710 0.055584 0.000000
vt  0.793400 0.055584 0.000000
vt  0.793400 0.055584 0.000000
vt  0.793400 0.055584 0.000000
vt  0.793400 0.000049 0.000000
vt  0.793400 0.000049 0.000000
vt  0.793400 0.000049 0.000000
vt  0.068548 0.000049 0.000000
vt  0.068548 0.000049 0.000000
vt  0.068548 0.000049 0.000000
vt  0.068548 0.055584 0.000000
vt  0.068548 0.055584 0.000000
vt  0.068548 0.055584 0.000000
vt  0.034243 0.055584 0.000000
vt  0.034243 0.055584 0.000000
vt  0.034243 0.055584 0.000000
vt  0.034308 0.000000 0.000000
vt  0.034308 0.000000 0.000000
vt  0.034308 0.000000 0.000000
vt  0.000000 0.000028 0.000000
vt  0.000000 0.000028 0.000000
vt  0.000000 0.000028 0.000000

vn  0.000000 0.000000 -1.000000
vn  -1.000000 0.000000 0.000000
vn  0.000000 1.000000 0.000000
vn  0.000000 0.000000 -1.000000
vn  -1.000000 0.000000 0.000000
vn  -0.000501 -1.000000 0.000000
vn  0.000000 0.000000 -1.000000
vn  -0.000501 -1.000000 0.000000
vn  0.999998 0.001903 0.000000
vn  0.000000 0.000000 -1.000000
vn  0.999998 0.001903 0.000000
vn  0.000000 -1.000000 0.000000
vn  0.000000 0.000000 -1.000000
vn  0.000000 -1.000000 0.000000
vn  -1.000000 0.000000 0.000000
vn  0.000000 0.000000 -1.000000
vn  -1.000000 0.000000 0.000000
vn  0.000000 -1.000000 0.000000
vn  0.000000 0.000000 -1.000000
vn  0.000000 -1.000000 0.000000
vn  1.000000 0.000000 0.000000
vn  0.000000 0.000000 -1.000000
vn  1.000000 0.000000 0.000000
vn  0.000000 -1.000000 0.000000
vn  0.000000 0.000000 -1.000000
vn  0.000000 -1.000000 0.000000
vn  -1.000000 0.000000 0.000000
vn  0.000000 0.000000 -1.000000
vn  -1.000000 0.000000 0.000000
vn  -0.000075 -1.000000 0.000000
vn  0.000000 0.000000 -1.000000
vn  -0.000075 -1.000000 0.000000
vn  1.000000 0.000000 0.000000
vn  0.000000 0.000000 -1.000000
vn  1.000000 0.000000 0.000000
vn  0.000000 1.000000 0.000000
vn  0.000000 0.000000 -1.000000
vn  0.000000 1.000000 0.000000
vn  1.000000 0.000000 0.000000
vn  0.000000 0.000000 -1.000000
vn  1.000000 0.000000 0.000000
vn  0.000000 1.000000 0.000000
vn  0.000000 0.000000 -1.000000
vn  0.000000 1.000000 0.000000
vn  1.000000 0.000000 0.000000
vn  0.000000 0.000000 -1.000000
vn  1.000000 0.000000 0.000000
vn  0.000000 -1.000000 0.000000
vn  0.000000 0.000000 -1.000000
vn  0.000000 -1.000000 0.000000
vn  1.000000 0.000000 0.000000
vn  0.000000 0.000000 -1.000000
vn  1.000000 0.000000 0.000000
vn  0.000000 1.000000 0.000000
vn  0.000000 0.000000 -1.000000
vn  0.000000 1.000000 0.000000
vn  0.000000 1.000000 0.000000
vn  0.000000 0.000000 -1.000000
vn  0.000000 1.000000 0.000000
vn  -1.000000 0.000000 0.000000
vn  0.000000 0.000000 -1.000000
vn  -1.000000 0.000000 0.000000
vn  0.000000 1.000000 0.000000
vn  0.000000 0.000000 -1.000000
vn  0.000000 1.000000 0.000000
vn  1.000000 0.000000 0.000000
vn  0.000000 0.000000 -1.000000
vn  1.000000 0.000000 0.000000
vn  0.000000 1.000000 0.000000
vn  0.000000 0.000000 -1.000000
vn  0.000000 1.000000 0.000000
vn  -1.000000 0.000000 0.000000
vn  0.000000 0.000000 -1.000000
vn  -1.000000 0.000000 0.000000
vn  0.000000 -1.000000 0.000000
vn  0.000000 0.000000 -1.000000
vn  0.000000 -1.000000 0.000000
vn  -1.000000 0.000000 0.000000
vn  0.000000 0.000000 -1.000000
vn  -1.000000 0.000000 0.000000
vn  0.000000 1.000000 0.000000
vn  0.000000 0.000000 1.000000
vn  -1.000000 0.000000 0.000000
vn  0.000000 1.000000 0.000000
vn  0.000000 0.000000 1.000000
vn  -1.000000 0.000000 0.000000
vn  0.000000 1.000000 0.000000
vn  0.000000 0.000000 1.000000
vn  0.000000 -1.000000 0.000000
vn  -1.000000 0.000000 0.000000
vn  0.000000 0.000000 1.000000
vn  -1.000000 0.000000 0.000000
vn  0.000000 -1.000000 0.000000
vn  0.000000 0.000000 1.000000
vn  0.000000 1.000000 0.000000
vn  -1.000000 0.000000 0.000000
vn  0.000000 0.000000 1.000000
vn  1.000000 0.000000 0.000000
vn  0.000000 1.000000 0.000000
vn  0.000000 0.000000 1.000000
vn  0.000000 1.000000 0.000000
vn  1.000000 0.000000 0.000000
vn  0.000000 0.000000 1.000000
vn  -1.000000 0.000000 0.000000
vn  0.000000 1.000000 0.000000
vn  0.000000 0.000000 1.000000
vn  0.000000 1.000000 0.000000
vn  -1.000000 0.000000 0.000000
vn  0.000000 0.000000 1.000000
vn  0.000000 1.000000 0.000000
vn  0.000000 1.000000 0.000000
vn  0.000000 0.000000 1.000000
vn  1.000000 0.000000 0.000000
vn  0.000000 1.000000 0.000000
vn  0.000000 0.000000 1.000000
vn  0.000000 -1.000000 0.000000
vn  1.000000 0.000000 0.000000
vn  0.000000 0.000000 1.000000
vn  1.000000 0.000000 0.000000
vn  0.000000 -1.000000 0.000000
vn  0.000000 0.000000 1.000000
vn  0.000000 1.000000 0.000000
vn  1.000000 0.000000 0.000000
vn  0.000000 0.000000 1.000000
vn  1.000000 0.000000 0.000000
vn  0.000000 1.000000 0.000000
vn  0.000000 0.000000 1.000000
vn  0.000000 1.000000 0.000000
vn  1.000000 0.000000 0.000000
vn  0.000000 0.000000 1.000000
vn  1.000000 0.000000 0.000000
vn  0.000000 1.000000 0.000000
vn  0.000000 0.000000 1.000000
vn  -0.000075 -1.000000 0.000000
vn  1.000000 0.000000 0.000000
vn  0.000000 0.000000 1.000000
vn  -1.000000 0.000000 0.000000
vn  -0.000075 -1.000000 0.000000
vn  0.000000 0.000000 1.000000
vn  0.000000 -1.000000 0.000000
vn  -1.000000 0.000000 0.000000
vn  0.000000 0.000000 1.000000
vn  1.000000 0.000000 0.000000
vn  0.000000 -1.000000 0.000000
vn  0.000000 0.000000 1.000000
vn  0.000000 -1.000000 0.000000
vn  1.000000 0.000000 0.000000
vn  0.000000 0.000000 1.000000
vn  -1.000000 0.000000 0.000000
vn  0.000000 -1.000000 0.000000
vn  0.000000 0.000000 1.000000
vn  0.000000 -1.000000 0.000000
vn  -1.000000 0.000000 0.000000
vn  0.000000 0.000000 1.000000
vn  0.999998 0.001903 0.000000
vn  0.000000 -1.000000 0.000000
vn  0.000000 0.000000 1.000000
vn  -0.000501 -1.000000 0.000000
vn  0.999998 0.001903 0.000000
vn  0.000000 0.000000 1.000000
vn  -1.000000 0.000000 0.000000
vn  -0.000501 -1.000000 0.000000


g 0
g 1
usemtl DEFAULT_MTL
f 79/79/79  4/4/4  1/1/1
f 83/83/83  2/2/2  5/5/5
f 84/84/84  81/81/81  3/3/3
f 10/10/10  7/7/7  4/4/4
f 162/162/162  6/6/6  8/8/8
f 79/79/79  10/10/10  4/4/4
f 161/161/161  83/83/83  5/5/5
f 159/159/159  9/9/9  11/11/11
f 162/162/162  8/8/8  158/158/158
f 79/79/79  13/13/13  10/10/10
f 156/156/156  12/12/12  14/14/14
f 159/159/159  11/11/11  155/155/155
f 67/67/67  16/16/16  13/13/13
f 149/149/149  15/15/15  17/17/17
f 79/79/79  67/67/67  13/13/13
f 153/153/153  15/15/15  149/149/149
f 156/156/156  14/14/14  152/152/152
f 22/22/22  19/19/19  16/16/16
f 150/150/150  18/18/18  20/20/20
f 61/61/61  22/22/22  16/16/16
f 64/64/64  61/61/61  16/16/16
f 67/67/67  64/64/64  16/16/16
f 143/143/143  21/21/21  23/23/23
f 147/147/147  21/21/21  143/143/143
f 150/150/150  20/20/20  146/146/146
f 43/43/43  25/25/25  22/22/22
f 144/144/144  24/24/24  26/26/26
f 46/46/46  43/43/43  22/22/22
f 55/55/55  46/46/46  22/22/22
f 61/61/61  55/55/55  22/22/22
f 40/40/40  28/28/28  25/25/25
f 137/137/137  27/27/27  29/29/29
f 43/43/43  40/40/40  25/25/25
f 141/141/141  27/27/27  137/137/137
f 144/144/144  26/26/26  140/140/140
f 34/34/34  31/31/31  28/28/28
f 138/138/138  30/30/30  32/32/32
f 37/37/37  34/34/34  28/28/28
f 40/40/40  37/37/37  28/28/28
f 135/135/135  33/33/33  35/35/35
f 138/138/138  32/32/32  134/134/134
f 132/132/132  36/36/36  38/38/38
f 135/135/135  35/35/35  131/131/131
f 129/129/129  39/39/39  41/41/41
f 132/132/132  38/38/38  128/128/128
f 122/122/122  42/42/42  44/44/44
f 126/126/126  42/42/42  122/122/122
f 129/129/129  41/41/41  125/125/125
f 123/123/123  45/45/45  47/47/47
f 52/52/52  49/49/49  46/46/46
f 116/116/116  48/48/48  50/50/50
f 55/55/55  52/52/52  46/46/46
f 120/120/120  48/48/48  116/116/116
f 123/123/123  47/47/47  119/119/119
f 117/117/117  51/51/51  53/53/53
f 110/110/110  54/54/54  56/56/56
f 114/114/114  54/54/54  110/110/110
f 117/117/117  53/53/53  113/113/113
f 61/61/61  58/58/58  55/55/55
f 111/111/111  57/57/57  59/59/59
f 108/108/108  60/60/60  62/62/62
f 111/111/111  59/59/59  107/107/107
f 105/105/105  63/63/63  65/65/65
f 108/108/108  62/62/62  104/104/104
f 102/102/102  66/66/66  68/68/68
f 105/105/105  65/65/65  101/101/101
f 73/73/73  70/70/70  67/67/67
f 99/99/99  69/69/69  71/71/71
f 76/76/76  73/73/73  67/67/67
f 79/79/79  76/76/76  67/67/67
f 102/102/102  68/68/68  98/98/98
f 96/96/96  72/72/72  74/74/74
f 99/99/99  71/71/71  95/95/95
f 89/89/89  75/75/75  77/77/77
f 93/93/93  75/75/75  89/89/89
f 96/96/96  74/74/74  92/92/92
f 90/90/90  78/78/78  80/80/80
f 87/87/87  81/81/81  84/84/84
f 90/90/90  80/80/80  86/86/86
f 154/154/154  85/85/85  82/82/82
f 157/157/157  154/154/154  82/82/82
f 160/160/160  157/157/157  82/82/82
f 151/151/151  88/88/88  85/85/85
f 154/154/154  151/151/151  85/85/85
f 94/94/94  91/91/91  88/88/88
f 100/100/100  94/94/94  88/88/88
f 151/151/151  100/100/100  88/88/88
f 100/100/100  97/97/97  94/94/94
f 145/145/145  103/103/103  100/100/100
f 151/151/151  145/145/145  100/100/100
f 145/145/145  106/106/106  103/103/103
f 118/118/118  109/109/109  106/106/106
f 121/121/121  118/118/118  106/106/106
f 139/139/139  121/121/121  106/106/106
f 142/142/142  139/139/139  106/106/106
f 145/145/145  142/142/142  106/106/106
f 115/115/115  112/112/112  109/109/109
f 118/118/118  115/115/115  109/109/109
f 127/127/127  124/124/124  121/121/121
f 139/139/139  127/127/127  121/121/121
f 133/133/133  130/130/130  127/127/127
f 139/139/139  133/133/133  127/127/127
f 139/139/139  136/136/136  133/133/133
f 151/151/151  148/148/148  145/145/145
